# xmcd CD database file
#
# Track frame offsets:
#	183
#	19600
#	34430
#	49090
#	64658
#	87758
#	98808
#	116980
#	138003
#	151918
#	161605
#	176813
#
# Disc length: 2572 seconds
#
# Revision: 1
# Processed by: cddbd v1.4PL0 Copyright (c) Steve Scherf et al.
# Submitted via: CDex 1.50beta8
#
DISCID=980a0a0c
DTITLE=Rich Minus - Borderline Blues
DYEAR=1992
DGENRE=Blues
TTITLE0=Borderline Blues
TTITLE1=Connie
TTITLE2=Gray day
TTITLE3=Feliz cumpleanos, mi corazon
TTITLE4=The legend
TTITLE5=Watchin'topper
TTITLE6=Wish I was 21 in 1961
TTITLE7=Still a stranger
TTITLE8=Wreck on the eastex freeway
TTITLE9=Look out 19
TTITLE10=Dirty windshield
TTITLE11=A penny for your thoughts
EXTD=YEAR: 1992
EXTT0=
EXTT1=
EXTT2=
EXTT3=
EXTT4=
EXTT5=
EXTT6=
EXTT7=
EXTT8=
EXTT9=
EXTT10=
EXTT11=
PLAYORDER=
